<svg width="174" height="66" viewBox="0 0 174 66" fill="none" xmlns="http://www.w3.org/2000/svg">
<path d="M33.0344 5.62499C30.1766 7.96874 28.425 12.6562 25.8437 24.8437C24.7375 30 23.3547 35.3437 22.7094 36.6562C21.9719 37.9687 18.7453 40.6875 15.4266 42.6562C8.88124 46.5 2.5203 51.5625 3.2578 52.2187C3.44218 52.5 5.83905 51 8.60468 48.9375C11.2781 46.875 15.2422 44.3437 17.4547 43.2187C22.4328 40.6875 24.6453 37.0312 26.4891 28.125C28.7937 16.6875 31.2828 8.90624 33.0344 7.31249C35.6156 5.06249 38.75 4.40624 41.6078 5.62499C45.2953 7.21874 45.7562 9.46874 43.2672 13.4062C40.8703 17.25 36.9984 18 34.0484 15.2812C33.1266 14.4375 32.3891 14.25 32.3891 14.8125C32.3891 15.375 33.4031 16.5937 34.6937 17.5312C36.9984 19.2187 37.0906 19.3125 35.5234 22.4062C34.325 24.9375 34.1406 27 34.6016 33.1875C36.3531 55.6875 36.3531 55.7812 37.1828 53.5312C37.6437 52.125 37.3672 47.0625 36.3531 39.6562C34.8781 28.4062 34.8781 28.0312 36.6297 23.7187C39.0266 17.9062 41.3312 16.6875 49.7203 17.0625C57.6484 17.4375 58.6625 15.9375 52.3016 13.125C49.9969 12.1875 47.4156 10.2187 46.5859 8.71874C45.6641 7.31249 44.3734 5.53124 43.5437 4.87499C41.4234 3.09374 35.7078 3.46874 33.0344 5.62499ZM50.8266 14.0625C52.4859 15.1875 51.0109 15.1875 48.5219 14.0625C47.3234 13.5 47.1391 13.2187 48.0609 13.2187C48.7984 13.2187 50.0891 13.5937 50.8266 14.0625ZM46.4937 15.6562C45.8484 15.8437 44.7422 15.8437 44.1891 15.6562C43.5437 15.375 44.0047 15.1875 45.2953 15.1875C46.5859 15.1875 47.0469 15.375 46.4937 15.6562Z" fill="white"/>
<path d="M38.4734 8.25005C38.2891 8.62505 38.3812 9.56255 38.8422 10.3125C39.4875 11.3438 39.9484 11.4375 40.7781 10.5938C41.3312 10.0313 41.5156 9.0938 41.2391 8.5313C40.5016 7.31255 39.1187 7.2188 38.4734 8.25005Z" fill="white"/>
<path d="M27.5031 29.2499C26.5812 33.1874 24.8297 37.9687 23.5391 39.8437C21.05 43.5937 22.525 43.9687 25.1984 40.2187C27.1344 37.4999 29.9 27.0937 29.4391 24.0937C29.2547 22.9687 28.425 25.1249 27.5031 29.2499Z" fill="white"/>
<path d="M14.5969 50.4375C9.80312 55.4062 10.3562 56.3437 15.3344 51.6562C19.6672 47.625 21.6953 46.9687 24.5531 49.0312C25.8437 50.0625 26.1203 51 25.5672 53.5312C25.1062 55.875 25.1984 56.4375 26.0281 55.5937C27.6875 53.9062 27.3187 49.5 25.3828 48.0937C22.2484 45.75 18.2844 46.5937 14.5969 50.4375Z" fill="white"/>
<path d="M59.7015 32.8246L55.1575 55.2246H49.1415L44.5975 32.8246H49.2055L50.9655 43.1926L52.0535 49.9126H52.2455L53.3335 43.1926L55.0935 32.8246H59.7015ZM61.251 55.2246V38.8726H65.475V55.2246H61.251ZM61.251 32.8246H65.475V37.1446H61.251V32.8246ZM68.2517 55.2246V38.8726H71.2917L72.0917 40.6006C72.945 39.4486 74.0224 38.8726 75.3237 38.8726H76.5717V43.1606H72.5077V55.2246H68.2517ZM79.3672 48.0886V42.2326H77.1592V38.8726H79.3672V34.4246H83.6232V38.8726H86.2472V42.2326H83.6232V49.1126C83.6232 50.4139 83.8472 51.3313 84.2952 51.8646H86.2472V55.2246H81.7032C80.5725 54.1793 79.8899 53.0486 79.6552 51.8326C79.4632 50.8086 79.3672 49.5606 79.3672 48.0886ZM94.04 55.2246H90.68C89.7413 54.0299 89.1013 52.8353 88.76 51.6406C88.4186 50.4459 88.248 48.9526 88.248 47.1606V38.8726H92.504V47.4806C92.504 49.4219 92.888 50.8833 93.656 51.8646H96.632V38.8726H100.888V55.2246H97.528L96.952 54.0726C96.1413 54.8406 95.1706 55.2246 94.04 55.2246ZM114.41 55.2246H107.626C106.09 53.8166 104.97 52.1419 104.266 50.2006C103.562 48.2593 103.21 46.2326 103.21 44.1206C103.21 41.9873 103.637 39.8859 104.49 37.8166C105.343 35.7473 106.538 34.0833 108.074 32.8246H115.85V36.6646H109.898C109.343 37.3046 108.863 38.3179 108.458 39.7046C108.053 41.0699 107.85 42.5313 107.85 44.0886C107.85 45.6246 108.031 47.0966 108.394 48.5046C108.778 49.8913 109.247 50.8939 109.802 51.5126H112.874V42.8086H117.098V48.1846C117.098 51.1286 116.202 53.4753 114.41 55.2246ZM129.166 55.2246H122.19C120.057 53.2406 118.99 50.5313 118.99 47.0966C118.99 45.3686 119.225 43.8646 119.694 42.5846C120.185 41.3046 120.953 40.0673 121.998 38.8726H129.486C130.596 40.1526 131.353 41.4006 131.758 42.6166C132.164 43.8113 132.366 45.3046 132.366 47.0966C132.366 50.5313 131.3 53.2406 129.166 55.2246ZM124.462 51.8646H126.894C127.662 50.3713 128.046 48.6753 128.046 46.7766C128.046 44.8779 127.652 43.3633 126.862 42.2326H124.462C123.694 43.3206 123.31 44.8673 123.31 46.8726C123.31 48.8566 123.694 50.5206 124.462 51.8646ZM144.385 55.2246H137.409C135.276 53.2406 134.209 50.5313 134.209 47.0966C134.209 45.3686 134.444 43.8646 134.913 42.5846C135.404 41.3046 136.172 40.0673 137.217 38.8726H144.705C145.815 40.1526 146.572 41.4006 146.977 42.6166C147.383 43.8113 147.585 45.3046 147.585 47.0966C147.585 50.5313 146.519 53.2406 144.385 55.2246ZM139.681 51.8646H142.113C142.881 50.3713 143.265 48.6753 143.265 46.7766C143.265 44.8779 142.871 43.3633 142.081 42.2326H139.681C138.913 43.3206 138.529 44.8673 138.529 46.8726C138.529 48.8566 138.913 50.5206 139.681 51.8646ZM150.976 38.8726H158.048V42.2326H153.056L156.096 46.7446C157.461 48.6859 158.219 50.0193 158.368 50.7446C158.453 51.0859 158.496 51.4379 158.496 51.8006C158.496 53.3153 157.931 54.4566 156.8 55.2246H148.64V51.8646H154.496L151.072 46.8406C150.923 46.6059 150.688 46.2753 150.368 45.8486C150.069 45.4219 149.835 45.0806 149.664 44.8246C149.493 44.5473 149.376 44.3446 149.312 44.2166C149.248 44.0886 149.163 43.9286 149.056 43.7366C148.949 43.5233 148.875 43.3419 148.832 43.1926C148.747 42.7873 148.704 42.4566 148.704 42.2006C148.704 40.6433 149.461 39.5339 150.976 38.8726ZM167.643 42.2326H165.243C164.923 42.6166 164.656 43.1499 164.443 43.8326C164.251 44.5153 164.155 45.1766 164.155 45.8166H168.731C168.774 45.1766 168.688 44.5153 168.475 43.8326C168.262 43.1286 167.984 42.5953 167.643 42.2326ZM171.995 51.8646V55.2246H163.867C162.374 54.2219 161.318 52.9846 160.699 51.5126C160.102 50.0193 159.803 48.5153 159.803 47.0006C159.803 43.5019 161.126 40.7926 163.771 38.8726H168.955C170.384 39.9179 171.355 41.0273 171.867 42.2006C172.379 43.3739 172.635 44.5579 172.635 45.7526C172.635 46.9473 172.539 47.9713 172.347 48.8246H164.379C164.443 49.3153 164.624 49.8806 164.923 50.5206C165.243 51.1393 165.584 51.5873 165.947 51.8646H171.995Z" fill="white"/>
</svg>
